<svg width="393" height="349" viewBox="0 0 393 349" fill="none" xmlns="http://www.w3.org/2000/svg">
<path d="M16.5118 97.7686C21.2526 132.692 30.9481 167.054 39.177 182.624C45.0663 174.591 51.5575 166.64 58.6578 158.997C52.0612 143.105 43.2813 114.925 37.8961 88.5791L16.5118 97.7686Z" fill="#EE6707"/>
<path d="M156.184 99.7065C142.233 81.6051 129.505 66.5835 117.952 54.1764L86.39 67.7397C94.7304 79.9888 104.158 95.586 114.692 115.305C127.461 108.576 141.287 103.211 156.184 99.7065Z" fill="#EE6707"/>
<path d="M274.701 54.1762C263.148 66.5834 250.42 81.6049 236.469 99.7064C251.367 103.211 265.192 108.576 277.961 115.305C288.495 95.5859 297.923 79.9886 306.263 67.7396L274.701 54.1762Z" fill="#EE6707"/>
<path d="M353.476 182.624C361.705 167.054 371.401 132.691 376.141 97.7685L354.757 88.5789C349.372 114.925 340.592 143.105 333.995 158.997C341.096 166.64 347.587 174.591 353.476 182.624Z" fill="#EE6707"/>
<path d="M29.0105 3.26324C12.1372 17.6062 11.12 58.0496 16.5118 97.7686L37.8961 88.5791C32.118 60.3108 30.2481 34.1544 39.177 27.5552C44.3816 23.7085 59.9047 28.8422 86.39 67.7397L117.952 54.1764C65.5938 -2.05633 37.3933 -4.58373 29.0105 3.26324Z" fill="#44190E"/>
<path d="M376.141 97.7685C381.533 58.0495 380.516 17.6061 363.643 3.26307C355.26 -4.5839 327.059 -2.05651 274.701 54.1762L306.263 67.7396C332.748 28.842 348.272 23.7083 353.476 27.555C362.405 34.1542 360.535 60.3106 354.757 88.5789L376.141 97.7685Z" fill="#44190E"/>
<path d="M277.961 115.305C299.663 126.742 318.315 142.119 333.995 158.997C340.592 143.105 349.372 114.925 354.757 88.5789C360.535 60.3106 362.405 34.1542 353.476 27.555C348.272 23.7083 332.748 28.842 306.263 67.7396C297.923 79.9886 288.495 95.5859 277.961 115.305Z" fill="#FDD6A1"/>
<path d="M58.6578 158.997C74.3382 142.119 92.9898 126.742 114.692 115.305C104.158 95.586 94.7304 79.9888 86.39 67.7397C59.9047 28.8422 44.3816 23.7085 39.177 27.5552C30.2481 34.1544 32.118 60.3108 37.8961 88.5791C43.2813 114.925 52.0612 143.105 58.6578 158.997Z" fill="#FDD6A1"/>
<path d="M39.177 182.624C19.4782 209.491 6.51184 237.271 0 257.496C58.1242 266.744 92.0978 267.188 147.611 258.828C152.817 258.044 156.959 254.178 158.63 249.185C162.339 238.098 166.958 231.48 176.987 225.874C188.858 219.237 203.795 219.237 215.666 225.874C225.693 231.479 230.313 238.095 234.021 249.179C235.693 254.175 239.84 258.043 245.05 258.824C300.798 267.188 334.579 266.745 392.653 257.496C386.141 237.271 373.175 209.491 353.476 182.624C347.587 174.591 341.096 166.64 333.995 158.997C318.315 142.119 299.663 126.742 277.961 115.305C265.192 108.576 251.367 103.211 236.469 99.7064C230.182 98.2273 223.703 97.0796 217.033 96.3005C210.326 95.5171 203.424 95.1064 196.327 95.1064C189.597 95.1064 183.042 95.4757 176.663 96.1819C169.624 96.9611 162.799 98.1504 156.184 99.7065C141.287 103.211 127.461 108.576 114.692 115.305C92.9898 126.742 74.3382 142.119 58.6578 158.997C51.5575 166.64 45.0663 174.591 39.177 182.624Z" fill="#EE6707"/>
<path d="M0 257.496C26.4243 287.888 102.684 348.673 196.327 348.673C289.97 348.673 366.229 287.888 392.653 257.496C334.579 266.745 300.798 267.188 245.05 258.824C239.84 258.043 235.693 254.175 234.021 249.179C230.313 238.095 225.693 231.479 215.666 225.874C203.795 219.237 188.858 219.237 176.987 225.874C166.958 231.48 162.339 238.098 158.63 249.185C156.959 254.178 152.817 258.044 147.611 258.828C92.0978 267.188 58.1242 266.744 0 257.496Z" fill="#FDD6A1"/>
<path d="M204.323 76.6025C199.988 73.0443 184.044 88.2226 176.663 96.1819C183.042 95.4757 189.597 95.1064 196.327 95.1064C203.424 95.1064 210.326 95.5171 217.033 96.3005C220.802 92.5549 220.342 86.6687 216.101 86.9027C213.37 87.0535 207.808 89.1369 203.941 90.7576C203.296 91.0278 202.628 90.2281 202.994 89.6386C205.494 85.611 207.919 79.5546 204.323 76.6025Z" fill="#EE6707"/>
<rect x="229.733" y="162.969" width="65.2566" height="83.2354" rx="32.6283" fill="white"/>
<rect x="259.899" y="174.83" width="32.0048" height="47.8604" rx="16.0024" fill="black"/>
<ellipse cx="261.976" cy="183.988" rx="9.97552" ry="9.98825" fill="white"/>
<rect x="92.5596" y="162.969" width="65.2566" height="83.2354" rx="32.6283" fill="white"/>
<rect x="122.322" y="174.666" width="31.9624" height="47.9436" rx="15.9812" fill="black"/>
<ellipse cx="124.322" cy="183.988" rx="9.32236" ry="9.98825" fill="white"/>
<path d="M217.879 279.564C216.352 284.675 213.249 289.171 209.013 292.413C204.777 295.654 199.626 297.474 194.294 297.613C188.962 297.751 183.723 296.202 179.324 293.185C174.926 290.169 171.593 285.839 169.802 280.815" stroke="#44190E" stroke-width="8.65648" stroke-linecap="round"/>
<path d="M193.776 235.615C186.119 235.837 170.87 238.878 171.136 249.266C171.469 262.251 186.452 268.244 193.776 268.244C201.101 268.244 216.083 262.251 216.416 249.266C216.683 238.878 201.434 235.837 193.776 235.615Z" fill="#44190E"/>
<path d="M103.882 140.976C107.619 136.458 112.902 133.489 118.705 132.647C124.508 131.805 130.417 133.151 135.283 136.421" stroke="#44190E" stroke-width="9.98825" stroke-linecap="round"/>
<path d="M283.106 144.969C279.37 140.45 274.086 137.481 268.283 136.639C262.48 135.798 256.572 137.143 251.705 140.413" stroke="#44190E" stroke-width="9.98825" stroke-linecap="round"/>
</svg>
